#define icon_calibration_width 16
#define icon_calibration_height 16
static unsigned char icon_calibration_bits[] = {
   0x80, 0x00, 0xe0, 0x03, 0x98, 0x0c, 0x0c, 0x18, 0x04, 0x10, 0x82, 0x20,
   0x82, 0x20, 0xe7, 0x73, 0x82, 0x20, 0x82, 0x20, 0x04, 0x10, 0x0c, 0x18,
   0x98, 0x0c, 0xe0, 0x03, 0x80, 0x00, 0x00, 0x00 };
