#define icon_level_width 16
#define icon_level_height 16
static char icon_level_bits[] = {
  0x00, 0x00, 0x00, 0x00, 0x44, 0x44, 0x44, 0x44, 0x44, 0xE4, 0xE4, 0xE4, 
  0xE4, 0x44, 0x44, 0x44, 0x44, 0x44, 0x4E, 0x44, 0x4E, 0x4E, 0x44, 0x4E, 
  0x44, 0x44, 0x44, 0x44, 0x00, 0x00, 0x00, 0x00, };
