#define icon_save_width 16
#define icon_save_height 16
static unsigned char icon_save_bits[] = {
   0x00, 0x00, 0x00, 0x00, 0x18, 0x0a, 0x1c, 0x1a, 0x1c, 0x38, 0x1c, 0x3c,
   0xfc, 0x3f, 0xfc, 0x3f, 0xfc, 0x3f, 0x0c, 0x30, 0x0c, 0x30, 0x0c, 0x30,
   0x0c, 0x30, 0xf8, 0x1f, 0x00, 0x00, 0x00, 0x00 };
