#define icon_OnOff_width 15
#define icon_OnOff_height 15
static unsigned char icon_OnOff_bits[] = {
   0x80, 0x00, 0x80, 0x00, 0x80, 0x00, 0x88, 0x08, 0x8c, 0x18, 0x86, 0x30,
   0x82, 0x20, 0x82, 0x20, 0x02, 0x20, 0x02, 0x20, 0x06, 0x30, 0x0c, 0x18,
   0x18, 0x0c, 0xf0, 0x07, 0xc0, 0x01 };
