#define icon_OnOff_width 16
#define icon_OnOff_height 16
static char icon_OnOff_bits[] = {
  0x80, 0x01, 0x90, 0x09, 0x9C, 0x39, 0x8C, 0x31, 0x86, 0x61, 0x86, 0x61, 
  0x83, 0xC1, 0x03, 0xC0, 0x03, 0xC0, 0x03, 0xC0, 0x06, 0x60, 0x06, 0x60, 
  0x0C, 0x30, 0x3C, 0x3C, 0xF0, 0x0F, 0xC0, 0x03, };
