#define icon_settings_width 16
#define icon_settings_height 16
static unsigned char icon_settings_bits[] = {
   0x00, 0x00, 0x00, 0x1e, 0x00, 0x0f, 0x80, 0x07, 0x80, 0x07, 0x80, 0x47,
   0xc0, 0x7f, 0xe0, 0x3f, 0xf0, 0x1f, 0xf8, 0x01, 0xfc, 0x00, 0x7e, 0x00,
   0x3f, 0x00, 0x1f, 0x00, 0x0f, 0x00, 0x07, 0x00 };
