#define icon_signalOffset_width 16
#define icon_signalOffset_height 16
static char icon_signalOffset_bits[] = {
  0x00, 0x00, 0x00, 0x00, 0x78, 0x00, 0x48, 0x20, 0x48, 0x70, 0x48, 0xF8, 
  0x48, 0x00, 0x4F, 0x0E, 0x40, 0x02, 0x40, 0xFA, 0x40, 0x72, 0x40, 0x22, 
  0xC0, 0x03, 0x00, 0x00, 0x00, 0x00, 0x00, 0x00, };
