#define icon_resistance_width 16
#define icon_resistance_height 16
static char icon_resistance_bits[] = {
  0x00, 0x00, 0x00, 0x00, 0x00, 0x00, 0x00, 0x00, 0x00, 0x00, 0xFC, 0x3F, 
  0x04, 0x20, 0x07, 0xE0, 0x04, 0x20, 0xFC, 0x3F, 0x00, 0x00, 0x00, 0x00, 
  0x00, 0x00, 0x00, 0x00, 0x00, 0x00, 0x00, 0x00, };
