#define icon_warning_width 16
#define icon_warning_height 16
static unsigned char icon_warning_bits[] = {
   0x80, 0x01, 0x40, 0x02, 0x40, 0x02, 0x20, 0x04, 0x20, 0x04, 0x90, 0x09,
   0x90, 0x09, 0x88, 0x11, 0x88, 0x11, 0x84, 0x21, 0x84, 0x21, 0x02, 0x40,
   0x82, 0x41, 0x81, 0x81, 0x01, 0x80, 0xfe, 0x7f };
