#define icon_boot_width 16
#define icon_boot_height 16
static unsigned char icon_boot_bits[] = {
   0x82, 0x81, 0x86, 0xc1, 0x8c, 0x61, 0x98, 0x31, 0xb0, 0x19, 0x20, 0x0c,
   0x00, 0x00, 0x1f, 0xf8, 0x1f, 0xf8, 0x00, 0x00, 0x30, 0x04, 0x98, 0x0d,
   0x8c, 0x19, 0x86, 0x31, 0x83, 0x61, 0x80, 0xc1 };
