#define icon_serial_width 16
#define icon_serial_height 16
static char icon_serial_bits[] = {
  0x00, 0x00, 0x00, 0x00, 0x00, 0x00, 0x00, 0x00, 0xFF, 0x7F, 0x01, 0x40, 
  0xAA, 0x2A, 0x02, 0x20, 0x54, 0x15, 0x04, 0x10, 0xF8, 0x0F, 0x00, 0x00, 
  0x00, 0x00, 0x00, 0x00, 0x00, 0x00, 0x00, 0x00, };
