#define icon_signalAmplitude_width 16
#define icon_signalAmplitude_height 16
static char icon_signalAmplitude_bits[] = {
  0x00, 0x00, 0x00, 0x00, 0x00, 0xE0, 0x78, 0x80, 0x48, 0xE0, 0x48, 0xE0, 
  0x48, 0x80, 0x4F, 0xEE, 0x40, 0xE2, 0x40, 0x82, 0x40, 0xE2, 0x40, 0xE2, 
  0xC0, 0x83, 0x00, 0xE0, 0x00, 0x00, 0x00, 0x00, };
