#define icon_reset_width 16
#define icon_reset_height 16
static unsigned char icon_reset_bits[] = {
   0x00, 0x00, 0xe4, 0x07, 0x1c, 0x18, 0x1c, 0x30, 0x3c, 0x20, 0x00, 0x40,
   0x00, 0x40, 0x00, 0x40, 0x02, 0x40, 0x02, 0x40, 0x02, 0x40, 0x04, 0x20,
   0x0c, 0x30, 0x18, 0x18, 0xe0, 0x07, 0x00, 0x00 };
