#define icon_echo_width 16
#define icon_echo_height 16
static char icon_echo_bits[] = {
  0x40, 0x00, 0x20, 0x02, 0x10, 0x01, 0x90, 0x08, 0x88, 0x04, 0x48, 0x02, 
  0x44, 0x12, 0x24, 0x09, 0x24, 0x09, 0x44, 0x12, 0x48, 0x02, 0x88, 0x04, 
  0x90, 0x08, 0x10, 0x01, 0x20, 0x02, 0x40, 0x00, };
