#define icon_signalForm_width 16
#define icon_signalForm_height 16
static char icon_signalForm_bits[] = {
  0x00, 0x00, 0x00, 0x00, 0x00, 0x00, 0x3C, 0x0F, 0x24, 0x09, 0x24, 0x09, 
  0x24, 0x09, 0x27, 0xC9, 0x20, 0x49, 0x20, 0x49, 0x20, 0x49, 0x20, 0x49, 
  0xE0, 0x79, 0x00, 0x00, 0x00, 0x00, 0x00, 0x00, };
