#define icon_speed_width 16
#define icon_speed_height 16
static char icon_speed_bits[] = {
  0xC0, 0x03, 0x30, 0x0C, 0x4C, 0x32, 0x04, 0x20, 0x0A, 0x58, 0x02, 0x44, 
  0x05, 0xA2, 0x01, 0x81, 0x81, 0x80, 0x05, 0xA0, 0x02, 0x40, 0x02, 0x40, 
  0x04, 0x20, 0x00, 0x00, 0x00, 0x00, 0x00, 0x00, };
