#define icon_supplyDC_width 16
#define icon_supplyDC_height 16
static char icon_supplyDC_bits[] = {
  0x00, 0x00, 0x00, 0x00, 0x00, 0x00, 0x00, 0x00, 0x00, 0x00, 0xFE, 0x7F, 
  0xFE, 0x7F, 0x00, 0x00, 0xDE, 0x7B, 0xDE, 0x7B, 0x00, 0x00, 0x70, 0x0E, 
  0xD0, 0x02, 0xD0, 0x02, 0x70, 0x0E, 0x00, 0x00, };
