#define icon_supplyAC_width 16
#define icon_supplyAC_height 16
static char icon_supplyAC_bits[] = {
  0x00, 0x00, 0x00, 0x00, 0x38, 0x00, 0x6C, 0x00, 0xC6, 0x00, 0x83, 0xC1, 
  0x00, 0x63, 0x00, 0x36, 0x00, 0x1C, 0x00, 0x00, 0x00, 0x00, 0x70, 0x07, 
  0x50, 0x01, 0x70, 0x01, 0x50, 0x07, 0x00, 0x00, };
