#define icon_info_width 16
#define icon_info_height 16
static unsigned char icon_info_bits[] = {
   0xc0, 0x03, 0x30, 0x0c, 0x0c, 0x30, 0x84, 0x21, 0x82, 0x41, 0x02, 0x40,
   0x81, 0x81, 0x81, 0x81, 0x81, 0x81, 0x81, 0x81, 0x82, 0x41, 0x82, 0x41,
   0x84, 0x21, 0x0c, 0x30, 0x30, 0x0c, 0xc0, 0x03 };
