#define icon_current_width 16
#define icon_current_height 16
static char icon_current_bits[] = {
  0xC0, 0x03, 0x30, 0x0C, 0x0C, 0x30, 0x84, 0x21, 0xC2, 0x43, 0x42, 0x42, 
  0x61, 0x86, 0xE1, 0x87, 0xF1, 0x8F, 0x31, 0x8C, 0x32, 0x4C, 0x32, 0x4C, 
  0x04, 0x20, 0x0C, 0x30, 0x30, 0x0C, 0xC0, 0x03, };
