#define icon_frequency_width 16
#define icon_frequency_height 16
static char icon_frequency_bits[] = {
  0x00, 0x1E, 0x00, 0x3F, 0x00, 0x33, 0x80, 0x01, 0xE0, 0x07, 0xE0, 0x07, 
  0x80, 0x01, 0xC0, 0x00, 0xC0, 0x00, 0xC0, 0x00, 0x60, 0x00, 0x60, 0x00, 
  0x60, 0x00, 0x36, 0x00, 0x3E, 0x00, 0x1C, 0x00, };
