#define icon_delay_width 16
#define icon_delay_height 16
static char icon_delay_bits[] = {
  0xC0, 0x03, 0x30, 0x0C, 0x0C, 0x30, 0x84, 0x21, 0x82, 0x41, 0x82, 0x41, 
  0x81, 0x81, 0x81, 0x81, 0x01, 0x83, 0x01, 0x86, 0x02, 0x4C, 0x02, 0x48, 
  0x04, 0x20, 0x0C, 0x30, 0x30, 0x0C, 0xC0, 0x03, };
