#define icon_pwm_width 16
#define icon_pwm_height 16
static unsigned char icon_pwm_bits[] = {
   0x00, 0x00, 0x00, 0x00, 0x00, 0x00, 0x3c, 0x00, 0x24, 0x43, 0x24, 0x23,
   0x24, 0x10, 0x24, 0x08, 0x24, 0x04, 0x24, 0x62, 0x24, 0x61, 0x24, 0x00,
   0xe7, 0xff, 0x00, 0x00, 0x00, 0x00, 0x00, 0x00 };
