#define icon_colorInvert_width 16
#define icon_colorInvert_height 16
static unsigned char icon_colorInvert_bits[] = {
   0xfe, 0x7f, 0xff, 0xc0, 0xff, 0x80, 0x7f, 0x80, 0x1f, 0x83, 0x0f, 0x87,
   0x0f, 0x8f, 0x07, 0x8f, 0x07, 0x8f, 0x0f, 0x8f, 0x0f, 0x87, 0x1f, 0x83,
   0x7f, 0x80, 0xff, 0x80, 0xff, 0xc0, 0xfe, 0x7f };
