#define icon_protection_width 16
#define icon_protection_height 16
static char icon_protection_bits[] = {
  0xE0, 0x07, 0x38, 0x1F, 0x0E, 0x7F, 0x02, 0x7F, 0x02, 0x7F, 0x02, 0x7F, 
  0x02, 0x7F, 0x02, 0x7F, 0xFE, 0x40, 0xFE, 0x40, 0xFC, 0x20, 0xFC, 0x20, 
  0xF8, 0x10, 0xF0, 0x08, 0xE0, 0x06, 0x80, 0x01, };
