#define icon_error_width 16
#define icon_error_height 16
static unsigned char icon_error_bits[] = {
   0xc0, 0x03, 0x30, 0x0c, 0x0c, 0x30, 0x04, 0x20, 0x12, 0x48, 0x22, 0x44,
   0x41, 0x82, 0x81, 0x81, 0x81, 0x81, 0x41, 0x82, 0x22, 0x44, 0x12, 0x48,
   0x04, 0x20, 0x0c, 0x30, 0x30, 0x0c, 0xc0, 0x03 };
