#define icon_pin_width 16
#define icon_pin_height 16
static unsigned char icon_pin_bits[] = {
   0xf8, 0x0f, 0xf8, 0x0f, 0xf0, 0x07, 0xc0, 0x01, 0xc0, 0x01, 0xc0, 0x01,
   0xc0, 0x01, 0xf8, 0x0f, 0xfc, 0x1f, 0xfc, 0x1f, 0xfc, 0x1f, 0x80, 0x00,
   0x80, 0x00, 0x80, 0x00, 0x80, 0x00, 0x80, 0x00 };
